<svg width="227" height="72" fill='#F806CC' viewBox="0 0 227 72" xmlns="http://www.w3.org/2000/svg">
<path  d="M55.04 19.304V39.464C55.04 41.48 55.536 43.032 56.528 44.12C57.52 45.208 58.976 45.752 60.896 45.752C62.816 45.752 64.288 45.208 65.312 44.12C66.336 43.032 66.848 41.48 66.848 39.464V19.304H75.056V39.416C75.056 42.424 74.416 44.968 73.136 47.048C71.856 49.128 70.128 50.696 67.952 51.752C65.808 52.808 63.408 53.336 60.752 53.336C58.096 53.336 55.712 52.824 53.6 51.8C51.52 50.744 49.872 49.176 48.656 47.096C47.44 44.984 46.832 42.424 46.832 39.416V19.304H55.04ZM114.996 25.928C118.324 25.928 120.964 26.936 122.916 28.952C124.9 30.968 125.892 33.768 125.892 37.352V53H117.732V38.456C117.732 36.728 117.268 35.4 116.34 34.472C115.444 33.512 114.196 33.032 112.596 33.032C110.996 33.032 109.732 33.512 108.804 34.472C107.908 35.4 107.46 36.728 107.46 38.456V53H99.2998V38.456C99.2998 36.728 98.8358 35.4 97.9078 34.472C97.0118 33.512 95.7638 33.032 94.1638 33.032C92.5638 33.032 91.2998 33.512 90.3718 34.472C89.4758 35.4 89.0278 36.728 89.0278 38.456V53H80.8198V26.216H89.0278V29.576C89.8598 28.456 90.9478 27.576 92.2918 26.936C93.6358 26.264 95.1558 25.928 96.8518 25.928C98.8678 25.928 100.66 26.36 102.228 27.224C103.828 28.088 105.076 29.32 105.972 30.92C106.9 29.448 108.164 28.248 109.764 27.32C111.364 26.392 113.108 25.928 114.996 25.928ZM130 39.56C130 36.808 130.512 34.392 131.536 32.312C132.592 30.232 134.016 28.632 135.808 27.512C137.6 26.392 139.6 25.832 141.808 25.832C143.696 25.832 145.344 26.216 146.752 26.984C148.192 27.752 149.296 28.76 150.064 30.008V26.216H158.272V53H150.064V49.208C149.264 50.456 148.144 51.464 146.704 52.232C145.296 53 143.648 53.384 141.76 53.384C139.584 53.384 137.6 52.824 135.808 51.704C134.016 50.552 132.592 48.936 131.536 46.856C130.512 44.744 130 42.312 130 39.56ZM150.064 39.608C150.064 37.56 149.488 35.944 148.336 34.76C147.216 33.576 145.84 32.984 144.208 32.984C142.576 32.984 141.184 33.576 140.032 34.76C138.912 35.912 138.352 37.512 138.352 39.56C138.352 41.608 138.912 43.24 140.032 44.456C141.184 45.64 142.576 46.232 144.208 46.232C145.84 46.232 147.216 45.64 148.336 44.456C149.488 43.272 150.064 41.656 150.064 39.608ZM172.418 30.68C173.378 29.208 174.578 28.056 176.018 27.224C177.458 26.36 179.058 25.928 180.818 25.928V34.616H178.562C176.514 34.616 174.978 35.064 173.954 35.96C172.93 36.824 172.418 38.36 172.418 40.568V53H164.21V26.216H172.418V30.68ZM211.19 26.216V53H202.982V49.352C202.15 50.536 201.014 51.496 199.574 52.232C198.166 52.936 196.598 53.288 194.87 53.288C192.822 53.288 191.014 52.84 189.446 51.944C187.878 51.016 186.662 49.688 185.798 47.96C184.934 46.232 184.502 44.2 184.502 41.864V26.216H192.662V40.76C192.662 42.552 193.126 43.944 194.054 44.936C194.982 45.928 196.23 46.424 197.798 46.424C199.398 46.424 200.662 45.928 201.59 44.936C202.518 43.944 202.982 42.552 202.982 40.76V26.216H211.19Z"/>
<path  d="M13.2188 53.25C14.8411 53.25 16.1562 51.9348 16.1562 50.3125C16.1562 48.6902 14.8411 47.375 13.2188 47.375C11.5964 47.375 10.2812 48.6902 10.2812 50.3125C10.2812 51.9348 11.5964 53.25 13.2188 53.25Z" />
<path  d="M33.7812 53.25C35.4036 53.25 36.7188 51.9348 36.7188 50.3125C36.7188 48.6902 35.4036 47.375 33.7812 47.375C32.1589 47.375 30.8438 48.6902 30.8438 50.3125C30.8438 51.9348 32.1589 53.25 33.7812 53.25Z" />
<path  d="M38.9953 23.2122C38.789 22.9598 38.529 22.7565 38.2343 22.6171C37.9396 22.4777 37.6176 22.4057 37.2916 22.4062H9.35318L8.79047 19.2136C8.73047 18.8735 8.55255 18.5654 8.28798 18.3435C8.0234 18.1215 7.68908 17.9999 7.34375 18H1.46875C1.07921 18 0.705631 18.1547 0.430187 18.4302C0.154743 18.7056 0 19.0792 0 19.4688C0 19.8583 0.154743 20.2319 0.430187 20.5073C0.705631 20.7828 1.07921 20.9375 1.46875 20.9375H6.11184L10.3033 44.6927C10.3633 45.0328 10.5412 45.3408 10.8058 45.5628C11.0704 45.7847 11.4047 45.9063 11.75 45.9062H35.25C35.6395 45.9062 36.0131 45.7515 36.2886 45.4761C36.564 45.2006 36.7188 44.827 36.7188 44.4375C36.7188 44.048 36.564 43.6744 36.2886 43.3989C36.0131 43.1235 35.6395 42.9688 35.25 42.9688H12.9819L12.4642 40.0312H34.6478C35.1572 40.0306 35.6507 39.854 36.0448 39.5313C36.4389 39.2086 36.7094 38.7597 36.8105 38.2605L39.4543 25.0417C39.518 24.7218 39.5099 24.3918 39.4305 24.0754C39.3511 23.759 39.2025 23.4642 38.9953 23.2122Z" />
<path  d="M221 41C217.692 41 215 43.6916 215 47C215 50.3084 217.692 53 221 53C224.308 53 227 50.3084 227 47C227 43.6916 224.308 41 221 41ZM221.577 50.2282H220.423V49.0743H221.577V50.2282ZM221.462 48.3846H220.538L220.365 43.7692H221.635L221.462 48.3846Z"/>
</svg>
